<svg width="18" height="16" viewBox="0 0 18 16" fill="none" xmlns="http://www.w3.org/2000/svg">
<path fill-rule="evenodd" clip-rule="evenodd" d="M14.9091 16H2.54545C1.12727 16 0 14.8727 0 13.4545V6.54545C0 5.74545 0.654545 5.09091 1.45455 5.09091H3.63636V1.45455C3.63636 0.654545 4.29091 0 5.09091 0H16C16.8 0 17.4545 0.654545 17.4545 1.45455V13.4545C17.4545 14.8727 16.3273 16 14.9091 16ZM1.45455 6.54545V13.4545C1.45455 14.0727 1.92727 14.5455 2.54545 14.5455C3.16364 14.5455 3.63636 14.0727 3.63636 13.4545V6.54545H1.45455ZM14.9091 14.5455C15.5273 14.5455 16 14.0727 16 13.4545V1.45455H5.09091V13.4545C5.09091 13.8182 5.01818 14.2182 4.83636 14.5455H14.9091ZM13.8182 7.27263H7.27273C6.87273 7.27263 6.54546 6.94536 6.54546 6.54536V3.63627C6.54546 3.23627 6.87273 2.909 7.27273 2.909H13.8182C14.2182 2.909 14.5455 3.23627 14.5455 3.63627V6.54536C14.5455 6.94536 14.2182 7.27263 13.8182 7.27263ZM13.0909 4.36354H8.00001V5.81809H13.0909V4.36354ZM7.27273 10.1818H13.8182C14.2182 10.1818 14.5455 9.85451 14.5455 9.45451C14.5455 9.05451 14.2182 8.72724 13.8182 8.72724H7.27273C6.87273 8.72724 6.54546 9.05451 6.54546 9.45451C6.54546 9.85451 6.87273 10.1818 7.27273 10.1818ZM11.6364 13.0909H7.27273C6.87273 13.0909 6.54546 12.7636 6.54546 12.3636C6.54546 11.9636 6.87273 11.6364 7.27273 11.6364H11.6364C12.0364 11.6364 12.3636 11.9636 12.3636 12.3636C12.3636 12.7636 12.0364 13.0909 11.6364 13.0909Z" fill="#111E6C"/>
</svg>
