<svg width="13" height="13" viewBox="0 0 13 13" fill="none" xmlns="http://www.w3.org/2000/svg">
<path d="M11.7 5.8576C8.40881 6.0119 5.72722 8.49732 5.26912 11.7H11.05C11.409 11.7 11.7 11.409 11.7 11.05V5.8576ZM3.9579 11.7C4.42696 7.77783 7.69016 4.71412 11.7 4.55638V1.95C11.7 1.59101 11.409 1.3 11.05 1.3H1.95C1.59101 1.3 1.3 1.59101 1.3 1.95V11.05C1.3 11.409 1.59101 11.7 1.95 11.7H3.9579ZM1.95 0H11.05C12.127 0 13 0.873045 13 1.95V11.05C13 12.127 12.127 13 11.05 13H1.95C0.873045 13 0 12.127 0 11.05V1.95C0 0.873045 0.873045 0 1.95 0ZM3.9 5.2C3.18203 5.2 2.6 4.61797 2.6 3.9C2.6 3.18203 3.18203 2.6 3.9 2.6C4.61797 2.6 5.2 3.18203 5.2 3.9C5.2 4.61797 4.61797 5.2 3.9 5.2Z" fill="#365896"/>
</svg>
