<svg width="21" height="5" viewBox="0 0 21 5" fill="none" xmlns="http://www.w3.org/2000/svg">
<path fill-rule="evenodd" clip-rule="evenodd" d="M0 2.4C5.74037e-08 1.08679 1.13208 0 2.44528 0C3.75849 0 4.84528 1.08679 4.89057 2.4C4.89057 3.71321 3.75849 4.8 2.44528 4.8C1.08679 4.8 -5.74e-08 3.71321 0 2.4ZM10.2907 0C8.9775 0 7.89071 1.08679 7.89071 2.4C7.89071 3.71321 8.9775 4.8 10.2907 4.8C11.6039 4.8 12.6907 3.71321 12.6907 2.4C12.6907 1.08679 11.6039 0 10.2907 0ZM18.0908 0C16.7776 0 15.6908 1.08679 15.6908 2.4C15.6908 3.71321 16.7776 4.8 18.0908 4.8C19.404 4.8 20.4908 3.71321 20.4908 2.4C20.4908 1.08679 19.404 0 18.0908 0Z" fill="white"/>
</svg>
