<svg width="19" height="4" viewBox="0 0 19 4" fill="none" xmlns="http://www.w3.org/2000/svg">
<path fill-rule="evenodd" clip-rule="evenodd" d="M0 2.00001C4.78321e-08 0.905663 0.943399 0 2.03774 0C3.13208 0 4.03775 0.905664 4.07548 2.00001C4.07548 3.09435 3.13208 4.00001 2.03774 4.00001C0.905663 4.00001 -4.78394e-08 3.09435 0 2.00001ZM9.09462 0C8.00028 0 7.09461 0.905663 7.09461 2.00001C7.09461 3.09435 8.00028 4.00001 9.09462 4.00001C10.189 4.00001 11.0946 3.09435 11.0946 2.00001C11.0946 0.905664 10.189 0 9.09462 0ZM16.1134 0C15.019 0 14.1134 0.905663 14.1134 2.00001C14.1134 3.09435 15.019 4.00001 16.1134 4.00001C17.2077 4.00001 18.1134 3.09435 18.1134 2.00001C18.1134 0.905664 17.2077 0 16.1134 0Z" fill="#959DAC"/>
</svg>
