<svg width="18" height="17" viewBox="0 0 18 17" fill="none" xmlns="http://www.w3.org/2000/svg">
<path d="M1.91298 0.298425C4.15741 0.0994751 6.50204 0 8.94688 0C11.3892 0 13.7315 0.0992699 15.9738 0.29781C16.8343 0.374 17.5171 1.04959 17.5967 1.90355C17.7951 4.03192 17.8942 6.06202 17.8942 7.99385C17.8942 9.8216 17.8055 11.5611 17.6279 13.2122C17.5371 14.0568 16.8567 14.7194 16.0043 14.7933C13.6519 14.9974 11.2994 15.0995 8.94688 15.0995C7.46891 15.0995 5.99094 15.0592 4.51297 14.9786C3.95672 14.9483 3.06399 15.5366 1.83477 16.7433C1.48342 17.0883 0.916921 17.0851 0.569455 16.7364C0.417183 16.5835 0.32592 16.381 0.312593 16.1665C0.103872 12.8062 -0.000488281 10.076 -0.000488281 7.97605C-0.000488281 5.95081 0.0965768 3.92531 0.290707 1.89955C0.372359 1.0476 1.05431 0.37454 1.91298 0.298425ZM4.4732 7.15789H13.4206C13.9147 7.15789 14.3153 6.75731 14.3153 6.26316C14.3153 5.76901 13.9147 5.36842 13.4206 5.36842H4.4732C3.97905 5.36842 3.57846 5.76901 3.57846 6.26316C3.57846 6.75731 3.97905 7.15789 4.4732 7.15789ZM6.39049 10.7368H11.5033C12.068 10.7368 12.5258 10.3363 12.5258 9.8421C12.5258 9.34796 12.068 8.94737 11.5033 8.94737H6.39049C5.82575 8.94737 5.36793 9.34796 5.36793 9.8421C5.36793 10.3363 5.82575 10.7368 6.39049 10.7368Z" fill="#F5F6FA"/>
</svg>
