<svg width="18" height="13" viewBox="0 0 18 13" fill="none" xmlns="http://www.w3.org/2000/svg">
<path d="M16.9337 4.80561H15.3318V3.20376C15.3318 2.9509 15.127 2.74609 14.8741 2.74609H14.4165C14.1636 2.74609 13.9588 2.9509 13.9588 3.20376V4.80561H12.357C12.1041 4.80561 11.8993 5.01042 11.8993 5.26328V5.72095C11.8993 5.97381 12.1041 6.17862 12.357 6.17862H13.9588V7.78046C13.9588 8.03332 14.1636 8.23813 14.4165 8.23813H14.8741C15.127 8.23813 15.3318 8.03332 15.3318 7.78046V6.17862H16.9337C17.1865 6.17862 17.3913 5.97381 17.3913 5.72095V5.26328C17.3913 5.01042 17.1865 4.80561 16.9337 4.80561Z" fill="#798295"/>
<path d="M4.08175 5.66851C4.58541 5.66851 5.04697 5.43578 5.42043 5.07812C5.0289 4.37902 4.8051 3.58794 4.8051 2.8289C4.8051 2.18518 4.96116 1.57809 5.23576 1.04192C4.89526 0.834143 4.49731 0.712402 4.07031 0.712402C2.82247 0.712402 1.81079 1.73392 1.81079 2.99389C1.81056 4.25339 2.83368 5.66851 4.08175 5.66851Z" fill="#798295"/>
<path d="M5.60165 6.75093C5.38105 6.70356 5.1529 6.67725 4.91812 6.67725H3.23779C1.44967 6.67747 0 8.12508 0 9.91068L0.00755155 10.2931C0.00755155 10.7919 0.412589 11.1965 0.912136 11.1965H2.5689C2.65037 9.20976 3.87372 7.51593 5.60165 6.75093Z" fill="#798295"/>
<path d="M8.7058 6.14582C10.2532 6.14582 11.4935 4.39111 11.4935 2.82886C11.4932 1.2666 10.2388 0 8.69138 0C7.144 0 5.88953 1.2666 5.88953 2.82886C5.88976 4.39134 7.15842 6.14582 8.7058 6.14582Z" fill="#798295"/>
<path d="M13.7577 11.4057C13.7577 9.19147 11.9602 7.39648 9.743 7.39648H7.65946C5.44205 7.39648 3.64478 9.19147 3.64478 11.4057L3.65439 11.8798C3.65439 12.4984 4.15668 13 4.77613 13H12.6458C13.2652 13 13.7675 12.4984 13.7675 11.8798L13.7577 11.4057Z" fill="#798295"/>
</svg>
