<svg width="13" height="13" viewBox="0 0 13 13" fill="none" xmlns="http://www.w3.org/2000/svg">
<path d="M6.5 0C2.92154 0 0 2.92154 0 6.5C0 10.0785 2.92154 13 6.5 13C10.0785 13 13 10.0785 13 6.5C13 2.92154 10.0785 0 6.5 0ZM9.50798 7.19149H7.26064V9.43883C7.26064 9.81915 6.94947 10.1303 6.56915 10.1303C6.18883 10.1303 5.87766 9.81915 5.87766 9.43883V7.19149H3.63032C3.25 7.19149 2.93883 6.88032 2.93883 6.5C2.93883 6.11968 3.25 5.80851 3.63032 5.80851H5.87766V3.56117C5.87766 3.18085 6.18883 2.86968 6.56915 2.86968C6.94947 2.86968 7.26064 3.18085 7.26064 3.56117V5.80851H9.50798C9.8883 5.80851 10.1995 6.11968 10.1995 6.5C10.1995 6.88032 9.8883 7.19149 9.50798 7.19149Z" fill="#798295"/>
</svg>
