<svg width="10" height="13" viewBox="0 0 10 13" fill="none" xmlns="http://www.w3.org/2000/svg">
<path d="M5.22574 12.811C4.61137 13.1837 3.81088 12.9883 3.43782 12.3745C1.14532 8.60338 0 6.03691 0 4.54539C0 2.03504 2.03721 0 4.55023 0C7.06325 0 9.10046 2.03504 9.10046 4.54539C9.10046 6.03691 7.95513 8.60338 5.66263 12.3745C5.55419 12.5529 5.40433 12.7026 5.22574 12.811ZM7.79901 4.54539C7.79901 2.75305 6.34448 1.30007 4.55023 1.30007C2.75598 1.30007 1.30145 2.75305 1.30145 4.54539C1.30145 5.7099 2.38499 8.13792 4.55023 11.6997C6.71547 8.13793 7.79901 5.7099 7.79901 4.54539ZM4.55507 6.50033C3.47691 6.50033 2.6029 5.62724 2.6029 4.55023C2.6029 3.47322 3.47691 2.60013 4.55507 2.60013C5.63322 2.60013 6.50724 3.47322 6.50724 4.55023C6.50724 5.62724 5.63322 6.50033 4.55507 6.50033Z" fill="#365896"/>
</svg>
