<svg width="15" height="15" viewBox="0 0 15 15" fill="none" xmlns="http://www.w3.org/2000/svg">
<path d="M10.8939 3.75302C10.8947 3.03762 10.6907 2.33693 10.3062 1.73368C9.92159 1.13043 9.37245 0.64981 8.72356 0.348567C8.07467 0.0473238 7.35313 -0.061965 6.64414 0.0336035C5.93515 0.129172 5.2683 0.425607 4.72233 0.887911C4.17636 1.35021 3.77407 1.95908 3.56295 2.64263C3.35184 3.32617 3.34071 4.05585 3.53088 4.74552C3.72105 5.43518 4.10458 6.05604 4.6362 6.53478C5.16781 7.01352 5.82531 7.33015 6.53105 7.4473C6.53105 7.46605 6.52012 7.48323 6.52012 7.50197V11.8758C6.52012 12.0415 6.58595 12.2004 6.70313 12.3176C6.82031 12.4347 6.97923 12.5006 7.14495 12.5006C7.31066 12.5006 7.46959 12.4347 7.58676 12.3176C7.70394 12.2004 7.76977 12.0415 7.76977 11.8758V7.50197C7.76977 7.48323 7.7604 7.46605 7.75884 7.4473C8.63402 7.30203 9.42933 6.8511 10.0034 6.17467C10.5774 5.49825 10.8929 4.64018 10.8939 3.75302ZM7.14495 6.25232C6.65063 6.25232 6.16742 6.10574 5.75641 5.83112C5.3454 5.55649 5.02506 5.16615 4.83589 4.70946C4.64673 4.25278 4.59723 3.75025 4.69367 3.26543C4.7901 2.78062 5.02814 2.33528 5.37767 1.98575C5.72721 1.63622 6.17254 1.39818 6.65736 1.30174C7.14217 1.20531 7.6447 1.2548 8.10139 1.44397C8.55807 1.63314 8.94841 1.95348 9.22304 2.36448C9.49766 2.77549 9.64425 3.25871 9.64425 3.75302C9.64425 4.41588 9.38093 5.05159 8.91222 5.5203C8.44351 5.98901 7.8078 6.25232 7.14495 6.25232Z" fill="#111E6C"/>
<path d="M0 12.4194C0 14.1924 3.70834 15 7.14488 15C10.5814 15 14.2898 14.1924 14.2898 12.4194C14.2898 10.8339 11.514 10.2325 9.85974 10.0107C9.77664 9.99665 9.69155 9.99953 9.60959 10.0192C9.52764 10.0389 9.4505 10.0749 9.38284 10.1251C9.31517 10.1754 9.25837 10.2388 9.21585 10.3116C9.17333 10.3844 9.14598 10.465 9.13543 10.5486C9.12489 10.6322 9.13137 10.7171 9.15449 10.7982C9.17761 10.8792 9.21689 10.9548 9.26996 11.0202C9.32304 11.0857 9.38881 11.1398 9.46332 11.1792C9.53783 11.2186 9.61954 11.2425 9.70354 11.2495C12.1419 11.5728 13.0073 12.2226 13.0479 12.4163C12.9667 12.7834 11.05 13.7503 7.14488 13.7503C3.23972 13.7503 1.32307 12.7834 1.24965 12.4226C1.29026 12.2211 2.16346 11.5634 4.61746 11.251C4.78193 11.2303 4.93144 11.1451 5.03309 11.0142C5.13474 10.8832 5.18021 10.7172 5.15949 10.5528C5.13878 10.3883 5.05358 10.2388 4.92263 10.1371C4.79169 10.0355 4.62572 9.99002 4.46125 10.0107C2.79141 10.2247 0 10.8277 0 12.4194Z" fill="#111E6C"/>
</svg>
