<svg width="35" height="35" viewBox="0 0 35 35" fill="none" xmlns="http://www.w3.org/2000/svg">
<path d="M29.778 4.30409C27.884 2.71463 25.6819 1.53386 23.3099 0.8359C21.8571 0.392705 20.3567 0.123677 18.8404 0.0344723C18.0991 -0.0115721 17.3557 -0.0115721 16.6144 0.0344723C15.642 0.0848038 14.6733 0.189962 13.7129 0.349444C11.6771 0.716699 9.71846 1.42671 7.92031 2.44926C5.50149 3.76013 3.46543 5.67779 2.01228 8.01376C1.07272 9.49019 0.444127 11.1427 0.164898 12.8702C-0.114331 14.5978 -0.0383271 16.3642 0.388265 18.0614C1.08644 20.9108 2.66507 23.4677 4.89979 25.3687C7.69589 27.8171 11.1718 29.3553 14.8644 29.7783C15.0825 29.7901 15.2959 29.8466 15.4913 29.9443C15.6867 30.0419 15.86 30.1786 16.0004 30.3459C16.1408 30.5133 16.2454 30.7076 16.3077 30.917C16.3699 31.1264 16.3886 31.3463 16.3624 31.5631C16.3624 32.1371 16.2329 32.7075 16.1629 33.278C16.0548 33.702 16.031 34.1432 16.0929 34.5764C16.0958 34.6377 16.1113 34.6977 16.1385 34.7527C16.1658 34.8077 16.2041 34.8565 16.2511 34.8959C16.2982 34.9354 16.3528 34.9647 16.4117 34.982C16.4706 34.9992 16.5325 35.0041 16.5934 34.9963C16.9535 34.9499 17.3063 34.8582 17.6434 34.7234C19.1373 34.0315 20.5545 33.1846 21.8714 32.1966C24.7946 30.1306 27.5549 27.8432 30.128 25.3547C31.0237 24.5323 31.8351 23.6226 32.55 22.6389C34.1242 20.411 34.9791 17.7549 35 15.0271C35.0016 13.8167 34.8355 12.6118 34.5065 11.4469C33.6881 8.64304 32.0396 6.15276 29.778 4.30409ZM10.4018 17.7569C10.002 17.7596 9.61046 17.6432 9.27708 17.4225C8.9437 17.2019 8.68362 16.8869 8.52999 16.5178C8.37638 16.1487 8.33618 15.7422 8.41454 15.3502C8.4929 14.9582 8.68627 14.5984 8.96997 14.3167C9.25368 14.035 9.61486 13.8442 10.0075 13.7686C10.4001 13.693 10.8063 13.736 11.1743 13.8922C11.5424 14.0484 11.8555 14.3107 12.0739 14.6456C12.2922 14.9805 12.4059 15.3728 12.4003 15.7726C12.3948 16.2995 12.1821 16.8032 11.8081 17.1745C11.4341 17.5459 10.9289 17.7551 10.4018 17.7569ZM17.4789 17.7569C17.0815 17.7534 16.694 17.6324 16.3652 17.409C16.0365 17.1857 15.7813 16.87 15.6318 16.5018C15.4822 16.1336 15.4451 15.7294 15.525 15.3401C15.6049 14.9508 15.7982 14.5939 16.0807 14.3143C16.3632 14.0348 16.7222 13.8451 17.1123 13.7693C17.5024 13.6935 17.9063 13.7348 18.2729 13.8882C18.6396 14.0415 18.9526 14.3 19.1726 14.631C19.3925 14.962 19.5096 15.3507 19.5089 15.7481C19.5034 16.2831 19.2872 16.7944 18.9072 17.1711C18.5272 17.5477 18.014 17.7595 17.4789 17.7604V17.7569ZM24.5979 17.7569C24.1993 17.759 23.809 17.6426 23.4766 17.4226C23.1442 17.2026 22.8846 16.8889 22.7308 16.5211C22.577 16.1534 22.5358 15.7483 22.6126 15.3572C22.6893 14.966 22.8805 14.6065 23.1619 14.3242C23.4433 14.0418 23.8022 13.8494 24.1931 13.7713C24.584 13.6932 24.9893 13.7329 25.3576 13.8854C25.7259 14.038 26.0405 14.2964 26.2617 14.628C26.4829 14.9597 26.6006 15.3495 26.5999 15.7481C26.6009 16.2802 26.3906 16.791 26.0152 17.1683C25.6399 17.5456 25.1301 17.7585 24.5979 17.7604V17.7569Z" fill="white"/>
</svg>
