<svg width="12" height="13" viewBox="0 0 12 13" fill="none" xmlns="http://www.w3.org/2000/svg">
<path fill-rule="evenodd" clip-rule="evenodd" d="M3.54545 1.18182C3.54545 0.529118 4.07457 0 4.72727 0H7.09091C7.74361 0 8.27273 0.529118 8.27273 1.18182H11.2273C11.5536 1.18182 11.8182 1.44638 11.8182 1.77273V2.95455C11.8182 3.2809 11.5536 3.54545 11.2273 3.54545H10.6364V11.8182C10.6364 12.4709 10.1072 13 9.45455 13H2.36364C1.71094 13 1.18182 12.4709 1.18182 11.8182V3.54545H0.590909C0.264559 3.54545 0 3.2809 0 2.95455V1.77273C0 1.44638 0.264559 1.18182 0.590909 1.18182H3.54545ZM4.13636 4.72727C3.81001 4.72727 3.54545 4.99183 3.54545 5.31818V10.0455C3.54545 10.3718 3.81001 10.6364 4.13636 10.6364C4.46271 10.6364 4.72727 10.3718 4.72727 10.0455V5.31818C4.72727 4.99183 4.46271 4.72727 4.13636 4.72727ZM7.68182 4.72727C7.35547 4.72727 7.09091 4.99183 7.09091 5.31818V10.0455C7.09091 10.3718 7.35547 10.6364 7.68182 10.6364C8.00817 10.6364 8.27273 10.3718 8.27273 10.0455V5.31818C8.27273 4.99183 8.00817 4.72727 7.68182 4.72727Z" fill="#798295"/>
</svg>
