<svg width="13" height="14" viewBox="0 0 13 14" fill="none" xmlns="http://www.w3.org/2000/svg">
<path d="M5.93006 11.6504C8.91248 11.6504 11.3302 9.23267 11.3302 6.25023C11.3302 3.26779 8.91248 0.850046 5.93006 0.850046C2.94765 0.850046 0.529932 3.26779 0.529932 6.25023C0.529932 9.23267 2.94765 11.6504 5.93006 11.6504ZM5.93006 2.10462C8.21959 2.10462 10.0756 3.96067 10.0756 6.25023C10.0756 8.53978 8.21959 10.3958 5.93006 10.3958C3.64053 10.3958 1.7845 8.53978 1.7845 6.25023C1.7845 3.96067 3.64053 2.10462 5.93006 2.10462Z" fill="#798295" stroke="#798295" stroke-width="0.3"/>
<path d="M8.86155 9.18153C8.61658 9.4265 8.61658 9.82368 8.86155 10.0687L11.5615 12.7686C11.8065 13.0136 12.2036 13.0136 12.4486 12.7686C12.6936 12.5236 12.6936 12.1265 12.4486 11.8815L9.74867 9.18153C9.5037 8.93656 9.10652 8.93656 8.86155 9.18153Z" fill="#798295" stroke="#798295" stroke-width="0.3"/>
</svg>
