<svg width="18" height="16" viewBox="0 0 18 16" fill="none" xmlns="http://www.w3.org/2000/svg">
<path fill-rule="evenodd" clip-rule="evenodd" d="M5.09091 13.0909H2.18182C1.60316 13.0909 1.04821 12.861 0.63904 12.4519C0.229869 12.0427 0 11.4877 0 10.9091V2.18182C0 1.60316 0.229869 1.04821 0.63904 0.63904C1.04821 0.22987 1.60316 0 2.18182 0H15.2727C15.8514 0 16.4063 0.22987 16.8155 0.63904C17.2247 1.04821 17.4545 1.60316 17.4545 2.18182V10.9091C17.4545 11.4877 17.2247 12.0427 16.8155 12.4519C16.4063 12.861 15.8514 13.0909 15.2727 13.0909H12.3636V14.5455C12.3636 14.9312 12.2104 15.3012 11.9376 15.574C11.6648 15.8468 11.2949 16 10.9091 16H6.54545C6.15968 16 5.78972 15.8468 5.51694 15.574C5.24416 15.3012 5.09091 14.9312 5.09091 14.5455V13.0909ZM6.54545 14.5455H10.9091V13.0909H6.54545V14.5455ZM1.66756 1.66756C1.53117 1.80395 1.45455 1.98893 1.45455 2.18182V10.9091C1.45455 11.102 1.53117 11.287 1.66756 11.4234C1.80395 11.5597 1.98893 11.6364 2.18182 11.6364H15.2727C15.4656 11.6364 15.6506 11.5597 15.787 11.4234C15.9234 11.287 16 11.102 16 10.9091V2.18182C16 1.98893 15.9234 1.80395 15.787 1.66756C15.6506 1.53117 15.4656 1.45455 15.2727 1.45455H2.18182C1.98893 1.45455 1.80395 1.53117 1.66756 1.66756ZM7.30775 10.1817C7.17613 10.1881 7.04524 10.1586 6.92908 10.0964C6.81301 10.0342 6.71602 9.94162 6.64846 9.82858C6.58089 9.71554 6.54529 9.58628 6.54544 9.45459V3.63641C6.54535 3.50471 6.58103 3.37546 6.64866 3.26245C6.71629 3.14945 6.81334 3.05693 6.92945 2.99477C7.04556 2.93261 7.17636 2.90314 7.30791 2.90951C7.43945 2.91589 7.5668 2.95786 7.67635 3.03095L12.04 5.94004C12.1397 6.00643 12.2215 6.09644 12.2781 6.20207C12.3347 6.3077 12.3643 6.42567 12.3643 6.5455C12.3643 6.66533 12.3347 6.7833 12.2781 6.88893C12.2215 6.99456 12.1397 7.08457 12.04 7.15095L7.67635 10.06C7.56677 10.1332 7.43936 10.1753 7.30775 10.1817ZM10.3254 6.5455L7.99998 4.99459V8.09641L10.3254 6.5455Z" fill="#111E6C"/>
</svg>
