<svg width="20" height="20" viewBox="0 0 20 20" fill="none" xmlns="http://www.w3.org/2000/svg">
<path d="M12.6512 12.3256C12.6512 12.7209 12.3256 13.0233 11.9302 13.0233H8.06977C7.67442 13.0233 7.37209 12.7209 7.37209 12.3256C7.37209 11.9302 7.67442 11.6279 8.06977 11.6279H11.9535C12.3488 11.6279 12.6512 11.9302 12.6512 12.3256ZM8.04651 8.37209H10.3023C10.6977 8.37209 11 8.06977 11 7.67442C11 7.27907 10.6977 6.97674 10.3023 6.97674H8.04651C7.65116 6.97674 7.34884 7.27907 7.34884 7.67442C7.34884 8.06977 7.65116 8.37209 8.04651 8.37209ZM11.9535 9.30233H8.06977C7.67442 9.30233 7.37209 9.60465 7.37209 10C7.37209 10.3953 7.67442 10.6977 8.06977 10.6977H11.9302C12.3256 10.6977 12.6512 10.3953 12.6512 10C12.6512 9.60465 12.3488 9.30233 11.9535 9.30233ZM20 10C20 15.5116 15.5116 20 10 20C4.48837 20 0 15.5116 0 10C0 4.48837 4.48837 0 10 0C15.5116 0 20 4.48837 20 10ZM14.907 6.93023C14.907 6.74419 14.8372 6.5814 14.6977 6.44186L12.4186 4.16279C12.3023 4.02326 12.1163 3.95349 11.9302 3.95349H6.60465C5.76744 3.97674 5.09302 4.62791 5.09302 5.46512V14.5349C5.09302 15.3721 5.76744 16.0465 6.60465 16.0465H13.3953C14.2326 16.0465 14.907 15.3721 14.907 14.5349V6.93023Z" fill="#959DAC"/>
</svg>
