<svg width="16" height="16" viewBox="0 0 16 16" fill="none" xmlns="http://www.w3.org/2000/svg">
<path d="M2.115 7.33333H4.28167C4.73772 7.33157 5.17452 7.14928 5.49653 6.82633C5.81854 6.50338 5.99956 6.06606 6 5.61C5.9992 5.39846 6.0405 5.18888 6.12147 4.99345C6.20245 4.79802 6.32149 4.62065 6.47167 4.47167C6.77387 4.17018 7.18313 4.00061 7.61 4H8.39C8.8168 4.00097 9.22593 4.17049 9.52833 4.47167C9.67851 4.62065 9.79755 4.79802 9.87853 4.99345C9.9595 5.18888 10.0008 5.39846 10 5.61C10.0004 6.06692 10.1821 6.505 10.5052 6.82809C10.8283 7.15119 11.2664 7.33289 11.7233 7.33333H13.89C14.4499 7.33157 14.9864 7.10802 15.3818 6.71161C15.7773 6.31521 15.9996 5.77827 16 5.21833C16 4.53305 15.865 3.85448 15.6028 3.22136C15.3405 2.58825 14.9562 2.01298 14.4716 1.52841C13.987 1.04385 13.4118 0.659468 12.7786 0.397222C12.1455 0.134976 11.4669 0 10.7817 0H5.21833C3.83435 0 2.50704 0.549787 1.52841 1.52841C0.549787 2.50704 0 3.83435 0 5.21833C0.000441399 5.77913 0.223413 6.31683 0.619957 6.71338C1.0165 7.10992 1.5542 7.33289 2.115 7.33333ZM2.47167 2.47167C2.83134 2.10955 3.25934 1.82246 3.73084 1.62705C4.20234 1.43164 4.70795 1.3318 5.21833 1.33333H10.7817C11.8119 1.33378 12.7998 1.74323 13.5283 2.47171C14.2568 3.20019 14.6662 4.1881 14.6667 5.21833C14.6667 5.42564 14.5843 5.62446 14.4377 5.77106C14.2911 5.91765 14.0923 6 13.885 6H11.7183C11.6158 5.99869 11.5178 5.95702 11.4458 5.88402C11.3737 5.81102 11.3333 5.71257 11.3333 5.61C11.3336 5.22341 11.2576 4.84058 11.1097 4.48338C10.9619 4.12618 10.7451 3.80162 10.4717 3.52826C10.1984 3.2549 9.87383 3.03811 9.51662 2.89027C9.15942 2.74243 8.77659 2.66645 8.39 2.66667H7.61C7.22341 2.66645 6.84058 2.74243 6.48338 2.89027C6.12618 3.03811 5.80162 3.2549 5.52826 3.52826C5.2549 3.80162 5.03811 4.12618 4.89027 4.48338C4.74243 4.84058 4.66645 5.22341 4.66667 5.61C4.66667 5.66122 4.65658 5.71193 4.63698 5.75925C4.61738 5.80656 4.58865 5.84956 4.55244 5.88577C4.51622 5.92199 4.47323 5.95071 4.42591 5.97031C4.3786 5.98991 4.32788 6 4.27667 6H2.11C1.90356 5.99868 1.70602 5.91574 1.56051 5.76929C1.415 5.62285 1.33333 5.42478 1.33333 5.21833C1.33217 4.708 1.43218 4.2025 1.62756 3.73105C1.82295 3.25961 2.10985 2.83156 2.47167 2.47167Z" fill="#111E6C"/>
<path d="M7.99992 10.0001C8.36811 10.0001 8.66659 9.7016 8.66659 9.33341C8.66659 8.96522 8.36811 8.66675 7.99992 8.66675C7.63173 8.66675 7.33325 8.96522 7.33325 9.33341C7.33325 9.7016 7.63173 10.0001 7.99992 10.0001Z" fill="#111E6C"/>
<path d="M4.66667 10.0001C5.03486 10.0001 5.33333 9.7016 5.33333 9.33341C5.33333 8.96522 5.03486 8.66675 4.66667 8.66675C4.29848 8.66675 4 8.96522 4 9.33341C4 9.7016 4.29848 10.0001 4.66667 10.0001Z" fill="#111E6C"/>
<path d="M11.3334 10.0001C11.7016 10.0001 12.0001 9.7016 12.0001 9.33341C12.0001 8.96522 11.7016 8.66675 11.3334 8.66675C10.9652 8.66675 10.6667 8.96522 10.6667 9.33341C10.6667 9.7016 10.9652 10.0001 11.3334 10.0001Z" fill="#111E6C"/>
<path d="M7.99992 12.6666C8.36811 12.6666 8.66659 12.3681 8.66659 11.9999C8.66659 11.6317 8.36811 11.3333 7.99992 11.3333C7.63173 11.3333 7.33325 11.6317 7.33325 11.9999C7.33325 12.3681 7.63173 12.6666 7.99992 12.6666Z" fill="#111E6C"/>
<path d="M4.66667 12.6666C5.03486 12.6666 5.33333 12.3681 5.33333 11.9999C5.33333 11.6317 5.03486 11.3333 4.66667 11.3333C4.29848 11.3333 4 11.6317 4 11.9999C4 12.3681 4.29848 12.6666 4.66667 12.6666Z" fill="#111E6C"/>
<path d="M11.3334 12.6666C11.7016 12.6666 12.0001 12.3681 12.0001 11.9999C12.0001 11.6317 11.7016 11.3333 11.3334 11.3333C10.9652 11.3333 10.6667 11.6317 10.6667 11.9999C10.6667 12.3681 10.9652 12.6666 11.3334 12.6666Z" fill="#111E6C"/>
<path d="M7.99992 15.3333C8.36811 15.3333 8.66659 15.0349 8.66659 14.6667C8.66659 14.2985 8.36811 14 7.99992 14C7.63173 14 7.33325 14.2985 7.33325 14.6667C7.33325 15.0349 7.63173 15.3333 7.99992 15.3333Z" fill="#111E6C"/>
<path d="M4.66667 15.3333C5.03486 15.3333 5.33333 15.0349 5.33333 14.6667C5.33333 14.2985 5.03486 14 4.66667 14C4.29848 14 4 14.2985 4 14.6667C4 15.0349 4.29848 15.3333 4.66667 15.3333Z" fill="#111E6C"/>
<path d="M11.3334 15.3333C11.7016 15.3333 12.0001 15.0349 12.0001 14.6667C12.0001 14.2985 11.7016 14 11.3334 14C10.9652 14 10.6667 14.2985 10.6667 14.6667C10.6667 15.0349 10.9652 15.3333 11.3334 15.3333Z" fill="#111E6C"/>
</svg>
