<svg width="14" height="13" viewBox="0 0 14 13" fill="none" xmlns="http://www.w3.org/2000/svg">
<path d="M13.3764 5.59218H12.1111V4.32685C12.1111 4.12711 11.9493 3.96533 11.7496 3.96533H11.388C11.1883 3.96533 11.0265 4.12711 11.0265 4.32685V5.59218H9.76118C9.56144 5.59218 9.39966 5.75396 9.39966 5.9537V6.31523C9.39966 6.51497 9.56144 6.67675 9.76118 6.67675H11.0265V7.94208C11.0265 8.14182 11.1883 8.3036 11.388 8.3036H11.7496C11.9493 8.3036 12.1111 8.14182 12.1111 7.94208V6.67675H13.3764C13.5761 6.67675 13.7379 6.51497 13.7379 6.31523V5.9537C13.7379 5.75396 13.5761 5.59218 13.3764 5.59218Z" fill="#798295"/>
<path d="M5.06107 6.14588C6.60839 6.14588 7.84859 4.39123 7.84859 2.82891C7.84859 1.26659 6.59411 0 5.04679 0C3.49948 0 2.245 1.26659 2.245 2.82891C2.24518 4.39123 3.51376 6.14588 5.06107 6.14588Z" fill="#798295"/>
<path d="M6.09834 7.39648H4.0147C1.79749 7.39648 0 9.19144 0 11.4058L0.00958042 11.8799C0.00958042 12.4985 0.511735 13.0001 1.13138 13.0001H9.001C9.62047 13.0001 10.1228 12.4985 10.1228 11.8799L10.1132 11.4058C10.113 9.19144 8.31573 7.39648 6.09834 7.39648Z" fill="#798295"/>
</svg>
