<svg width="26" height="25" viewBox="0 0 26 25" fill="none" xmlns="http://www.w3.org/2000/svg">
<path d="M7.54284 12.2277C7.62576 12.3107 7.72423 12.3765 7.83262 12.4215C7.94102 12.4664 8.0572 12.4895 8.17453 12.4895C8.29187 12.4895 8.40806 12.4664 8.51645 12.4215C8.62484 12.3765 8.72331 12.3107 8.80623 12.2277L18.0562 2.97768C18.1315 3.16891 18.2705 3.32832 18.4496 3.429C18.6288 3.52968 18.8372 3.56546 19.0397 3.53031C19.2422 3.49517 19.4264 3.39124 19.5611 3.23607C19.6959 3.0809 19.773 2.88399 19.7794 2.67857V1.21429C19.7794 0.892237 19.6515 0.583379 19.4238 0.355656C19.1961 0.127933 18.8872 0 18.5652 0H17.1009C16.8985 0.0090303 16.7052 0.0866133 16.5527 0.220008C16.4003 0.353402 16.2977 0.534677 16.2619 0.734063C16.2261 0.933449 16.2591 1.13909 16.3556 1.31722C16.4521 1.49534 16.6063 1.63537 16.7928 1.71429L7.54284 10.9687C7.37654 11.136 7.2832 11.3623 7.2832 11.5982C7.2832 11.8341 7.37654 12.0604 7.54284 12.2277Z" fill="url(#paint0_linear)"/>
<path d="M6.2394 14.7944L6.35548 14.6784C6.43843 14.5954 6.50424 14.4969 6.54913 14.3885C6.59403 14.2802 6.61713 14.164 6.61713 14.0467C6.61713 13.9294 6.59403 13.8132 6.54913 13.7048C6.50424 13.5964 6.43843 13.4979 6.35548 13.415C6.27252 13.332 6.17404 13.2662 6.06565 13.2213C5.95726 13.1764 5.8411 13.1533 5.72378 13.1533C5.60646 13.1533 5.4903 13.1764 5.38191 13.2213C5.27352 13.2662 5.17504 13.332 5.09208 13.415L4.97601 13.5311C4.80848 13.6986 4.71436 13.9258 4.71436 14.1627C4.71436 14.3997 4.80848 14.6269 4.97601 14.7944C5.14355 14.962 5.37078 15.0561 5.60771 15.0561C5.84464 15.0561 6.07187 14.962 6.2394 14.7944Z" fill="url(#paint1_linear)"/>
<path d="M3.26157 17.4109C3.49799 17.4099 3.72436 17.3151 3.89104 17.1475L4.00711 17.0314C4.17465 16.8639 4.26877 16.6366 4.26877 16.3997C4.26877 16.1628 4.17465 15.9355 4.00711 15.768C3.83957 15.6005 3.61235 15.5063 3.37541 15.5063C3.13848 15.5063 2.91125 15.6005 2.74372 15.768L2.62765 15.8841C2.50173 16.009 2.41585 16.1685 2.38097 16.3424C2.34608 16.5163 2.36377 16.6966 2.43178 16.8604C2.49979 17.0242 2.61503 17.164 2.76281 17.2621C2.9106 17.3601 3.08423 17.4119 3.26157 17.4109Z" fill="url(#paint2_linear)"/>
<path d="M0.377729 18.1293L0.261657 18.2454C0.178702 18.3284 0.112898 18.4268 0.0680025 18.5352C0.0231073 18.6436 8.74079e-10 18.7598 0 18.8771C-8.74078e-10 18.9944 0.0231073 19.1106 0.0680025 19.219C0.112898 19.3274 0.178702 19.4258 0.261657 19.5088C0.344613 19.5918 0.443095 19.6576 0.551482 19.7025C0.659868 19.7473 0.776037 19.7705 0.893353 19.7705C1.01067 19.7705 1.12684 19.7473 1.23522 19.7025C1.34361 19.6576 1.44209 19.5918 1.52505 19.5088L1.64112 19.3927C1.80866 19.2252 1.90278 18.998 1.90278 18.761C1.90278 18.5241 1.80866 18.2969 1.64112 18.1293C1.47358 17.9618 1.24636 17.8677 1.00942 17.8677C0.772493 17.8677 0.545265 17.9618 0.377729 18.1293Z" fill="url(#paint3_linear)"/>
<path d="M0.63215 24.9999H6.78393C6.91536 24.9999 7.0414 24.9477 7.13433 24.8548C7.22726 24.7618 7.27947 24.6358 7.27947 24.5044C7.27897 23.96 7.11715 23.4279 6.81445 22.9754C6.51175 22.5229 6.08175 22.1702 5.57875 21.962C5.07575 21.7537 4.52231 21.6992 3.98834 21.8052C3.45436 21.9113 2.96379 22.1732 2.57858 22.5579L0.283936 24.8526C0.375974 24.9458 0.501169 24.9987 0.63215 24.9999Z" fill="url(#paint4_linear)"/>
<path d="M10.1098 15.0269C9.44132 15.6962 9.06562 16.6033 9.06519 17.5493V24.5046C9.06519 24.636 9.11739 24.7621 9.21032 24.855C9.30326 24.9479 9.4293 25.0002 9.56072 25.0002H15.7125C15.8439 25.0002 15.97 24.9479 16.0629 24.855C16.1558 24.7621 16.208 24.636 16.208 24.5046V17.5493C16.2077 16.8429 15.9979 16.1524 15.6052 15.5653C15.2124 14.9781 14.6544 14.5206 14.0017 14.2507C13.3489 13.9807 12.6307 13.9103 11.938 14.0485C11.2453 14.1867 10.609 14.5272 10.1098 15.0269Z" fill="url(#paint5_linear)"/>
<path d="M25.1365 8.62063C25.1371 7.91386 24.9279 7.22281 24.5355 6.63498C24.1431 6.04714 23.5851 5.58895 22.9322 5.3184C22.2792 5.04786 21.5607 4.97713 20.8676 5.11517C20.1744 5.2532 19.5378 5.5938 19.0383 6.09384C18.7067 6.42576 18.4438 6.81975 18.2646 7.25331C18.0854 7.68686 17.9933 8.15148 17.9937 8.62063V24.1876C17.9937 24.4031 18.0793 24.6097 18.2316 24.7621C18.384 24.9145 18.5907 25.0001 18.8062 25.0001H24.641C24.7724 25.0001 24.8984 24.9479 24.9914 24.8549C25.0843 24.762 25.1365 24.636 25.1365 24.5045V8.62063Z" fill="url(#paint6_linear)"/>
<defs>
<linearGradient id="paint0_linear" x1="13.5313" y1="0" x2="13.5313" y2="12.4895" gradientUnits="userSpaceOnUse">
<stop stop-color="#354188"/>
<stop offset="1" stop-color="#031161"/>
</linearGradient>
<linearGradient id="paint1_linear" x1="5.66574" y1="13.1533" x2="5.66574" y2="15.0561" gradientUnits="userSpaceOnUse">
<stop stop-color="#354188"/>
<stop offset="1" stop-color="#031161"/>
</linearGradient>
<linearGradient id="paint2_linear" x1="3.31615" y1="15.5063" x2="3.31615" y2="17.4109" gradientUnits="userSpaceOnUse">
<stop stop-color="#354188"/>
<stop offset="1" stop-color="#031161"/>
</linearGradient>
<linearGradient id="paint3_linear" x1="0.951389" y1="17.8677" x2="0.951389" y2="19.7705" gradientUnits="userSpaceOnUse">
<stop stop-color="#354188"/>
<stop offset="1" stop-color="#031161"/>
</linearGradient>
<linearGradient id="paint4_linear" x1="3.7817" y1="21.7524" x2="3.7817" y2="24.9999" gradientUnits="userSpaceOnUse">
<stop stop-color="#354188"/>
<stop offset="1" stop-color="#031161"/>
</linearGradient>
<linearGradient id="paint5_linear" x1="12.6366" y1="13.9795" x2="12.6366" y2="25.0002" gradientUnits="userSpaceOnUse">
<stop stop-color="#354188"/>
<stop offset="1" stop-color="#031161"/>
</linearGradient>
<linearGradient id="paint6_linear" x1="21.5651" y1="5.04639" x2="21.5651" y2="25.0001" gradientUnits="userSpaceOnUse">
<stop stop-color="#354188"/>
<stop offset="1" stop-color="#031161"/>
</linearGradient>
</defs>
</svg>
