<svg width="16" height="15" viewBox="0 0 16 15" fill="none" xmlns="http://www.w3.org/2000/svg">
<path d="M13.8944 0H1.91574C0.863137 0 0 0.845942 0 1.87758V9.53232C0 10.564 0.863137 11.4099 1.91574 11.4099H2.86309L6.463 15V11.4099H13.8734C14.926 11.4099 15.7891 10.564 15.7891 9.53232V1.87758C15.8101 0.845942 14.947 0 13.8944 0ZM3.83149 6.89133C3.17887 6.89133 2.63152 6.37552 2.63152 5.71527C2.63152 5.07565 3.15782 4.5392 3.83149 4.5392C4.4841 4.5392 5.03146 5.05502 5.03146 5.71527C5.03146 6.35488 4.50516 6.89133 3.83149 6.89133ZM7.89455 6.89133C7.24193 6.89133 6.69458 6.37552 6.69458 5.71527C6.69458 5.07565 7.22088 4.5392 7.89455 4.5392C8.54716 4.5392 9.09452 5.05502 9.09452 5.71527C9.09452 6.35488 8.56822 6.89133 7.89455 6.89133ZM11.9787 6.89133C11.326 6.89133 10.7787 6.37552 10.7787 5.71527C10.7787 5.07565 11.305 4.5392 11.9787 4.5392C12.6313 4.5392 13.1786 5.05502 13.1786 5.71527C13.1786 6.35488 12.6313 6.89133 11.9787 6.89133Z" fill="#798295"/>
</svg>
