<svg width="13" height="13" viewBox="0 0 13 13" fill="none" xmlns="http://www.w3.org/2000/svg">
<path d="M1.3 4.55H11.7V3.25C11.7 2.89101 11.409 2.6 11.05 2.6H5.31152L4.01152 1.3H1.95C1.59101 1.3 1.3 1.59101 1.3 1.95V4.55ZM1.3 5.85V11.05C1.3 11.409 1.59101 11.7 1.95 11.7H11.05C11.409 11.7 11.7 11.409 11.7 11.05V5.85H1.3ZM1.95 0H4.01152C4.3563 0 4.68696 0.136964 4.93076 0.380761L5.85 1.3H11.05C12.127 1.3 13 2.17304 13 3.25V11.05C13 12.127 12.127 13 11.05 13H1.95C0.873045 13 0 12.127 0 11.05V1.95C0 0.873045 0.873045 0 1.95 0Z" fill="#365896"/>
</svg>
