<svg width="11" height="13" viewBox="0 0 11 13" fill="none" xmlns="http://www.w3.org/2000/svg">
<path d="M1.67913 3.10702C1.45629 3.21844 1.31553 3.4462 1.31553 3.69534V11.0267C1.31553 11.39 1.61002 11.6845 1.97329 11.6845H8.55093C8.9142 11.6845 9.20869 11.39 9.20869 11.0267V3.69534C9.20869 3.4462 9.06793 3.21844 8.84509 3.10702L5.26211 1.31553L1.67913 3.10702ZM1.09081 1.93037L4.67379 0.138884C5.04415 -0.0462947 5.48008 -0.0462947 5.85043 0.138884L9.43341 1.93037C10.1019 2.26463 10.5242 2.94791 10.5242 3.69534V11.0267C10.5242 12.1165 9.64075 13 8.55093 13H1.97329C0.883473 13 0 12.1165 0 11.0267V3.69534C0 2.94791 0.422289 2.26463 1.09081 1.93037ZM5.26211 5.7646C4.53556 5.7646 3.94658 5.17562 3.94658 4.44907C3.94658 3.72252 4.53556 3.13354 5.26211 3.13354C5.98866 3.13354 6.57764 3.72252 6.57764 4.44907C6.57764 5.17562 5.98866 5.7646 5.26211 5.7646Z" fill="#365896"/>
</svg>
